<?xml version="1.0" encoding="UTF-8" standalone="no"?>
<!-- Created with Inkscape (http://www.inkscape.org/) -->

<svg
   xmlns:dc="http://purl.org/dc/elements/1.1/"
   xmlns:cc="http://creativecommons.org/ns#"
   xmlns:rdf="http://www.w3.org/1999/02/22-rdf-syntax-ns#"
   xmlns:svg="http://www.w3.org/2000/svg"
   xmlns="http://www.w3.org/2000/svg"
   xmlns:sodipodi="http://sodipodi.sourceforge.net/DTD/sodipodi-0.dtd"
   xmlns:inkscape="http://www.inkscape.org/namespaces/inkscape"
   width="347.14285"
   height="347.14282"
   viewBox="0 0 91.848215 91.848207"
   version="1.1"
   id="svg2216"
   inkscape:version="0.92.3 (2405546, 2018-03-11)"
   sodipodi:docname="circle.svg">
  <defs
     id="defs2210" />
  <sodipodi:namedview
     id="base"
     pagecolor="#ffffff"
     bordercolor="#666666"
     borderopacity="1.0"
     inkscape:pageopacity="0.0"
     inkscape:pageshadow="2"
     inkscape:zoom="1.4"
     inkscape:cx="207.007"
     inkscape:cy="169.20533"
     inkscape:document-units="px"
     inkscape:current-layer="layer1"
     showgrid="false"
     units="px"
     inkscape:window-width="1280"
     inkscape:window-height="737"
     inkscape:window-x="-8"
     inkscape:window-y="-8"
     inkscape:window-maximized="1"
     fit-margin-top="10"
     fit-margin-left="10"
     fit-margin-bottom="10"
     fit-margin-right="10"
     inkscape:showpageshadow="false" />
  <metadata
     id="metadata2213">
    <rdf:RDF>
      <cc:Work
         rdf:about="">
        <dc:format>image/svg+xml</dc:format>
        <dc:type
           rdf:resource="http://purl.org/dc/dcmitype/StillImage" />
        <dc:title></dc:title>
      </cc:Work>
    </rdf:RDF>
  </metadata>
  <g
     inkscape:label="Layer 1"
     inkscape:groupmode="layer"
     id="layer1"
     transform="translate(-1.8319654,-120.24363)">
    

<path
       style="fill:#ff6016;fill-opacity:1;fill-rule:evenodd;stroke:none;stroke-width:0;stroke-opacity:1"
       d="m 73.087891,82.107422 -33.919922,124.749998 -7.111328,2.68946 v 7.27343 h 29.013671 v -7.27343 l -12.232421,-2.68946 8.748047,-34.57617 h 36.623046 l 9.103516,34.57617 -11.023438,2.68946 v 7.27343 h 42.455078 v -7.27343 L 127.49219,206.85742 93.712891,82.107422 Z m 3.130859,20.126958 15.289062,59.08593 H 60.501953 Z m 73.44531,23.8164 -11.11133,22.22266 11.11133,22.2207 11.10938,-22.2207 z"
       transform="matrix(0.26458334,0,0,0.26458334,8.0307756,126.44244)"
       id="path820"
       inkscape:connector-curvature="0"
       sodipodi:nodetypes="cccccccccccccccccccccccccc" />
  


<path
       style="fill:#ff6016;fill-opacity:1;fill-rule:evenodd;stroke:none;stroke-width:0;stroke-opacity:1"
       d="m 174.07031,81.851562 v 37.792968 h 5.93555 l 1.76172,-25.093749 c 1.60911,-0.537494 4.08882,-1.008988 7.4375,-1.412109 3.34868,-0.403121 7.87125,-0.603516 13.56836,-0.603516 h 3.32617 V 206.91992 l -13.89453,2.7207 v 7.35743 h 48.4043 v -7.35743 l -13.89454,-2.7207 V 92.736328 h 3.19532 c 5.13174,0 9.5685,0.167973 13.30859,0.503906 3.78358,0.335934 6.47878,0.773053 8.08789,1.310547 l 1.76172,25.093749 h 6.00195 V 81.851562 Z"
       transform="matrix(0.26458334,0,0,0.26458334,8.0307756,126.44244)"
       id="path820"
       inkscape:connector-curvature="0"
       sodipodi:nodetypes="ccccssccccccccscccccc" />
  




    <g
       aria-label="a"
       transform="scale(1.000033,0.999967)"
       style="font-style:normal;font-variant:normal;font-weight:normal;font-stretch:normal;font-size:6.6024394px;line-height:1.25;font-family:sans-serif;font-variant-ligatures:normal;font-variant-position:normal;font-variant-caps:normal;font-variant-numeric:normal;font-variant-alternates:normal;font-feature-settings:normal;text-indent:0;text-align:center;text-decoration:none;text-decoration-line:none;text-decoration-style:solid;text-decoration-color:#000000;letter-spacing:0px;word-spacing:0px;text-transform:none;writing-mode:lr-tb;direction:ltr;text-orientation:mixed;dominant-baseline:auto;baseline-shift:baseline;text-anchor:middle;white-space:normal;shape-padding:0;opacity:1;vector-effect:none;fill:#000000;fill-opacity:1;stroke:#000000;stroke-width:0;stroke-linecap:butt;stroke-linejoin:miter;stroke-miterlimit:4;stroke-dasharray:none;stroke-dashoffset:0;stroke-opacity:1"
       id="text824" />
    <path
       style="fill:#000000;fill-opacity:1;fill-rule:evenodd;stroke-width:0.26458332"
       d="M 47.756072,122.88946 A 43.278276,43.278276 0 0 0 4.4777988,166.16773 43.278276,43.278276 0 0 0 47.756072,209.446 43.278276,43.278276 0 0 0 91.034346,166.16773 43.278276,43.278276 0 0 0 47.756072,122.88946 Z m 0,2.70488 A 40.573382,40.573382 0 0 1 88.329453,166.16773 40.573382,40.573382 0 0 1 47.756072,206.74111 40.573382,40.573382 0 0 1 7.1826909,166.16773 40.573382,40.573382 0 0 1 47.756072,125.59434 Z"
       id="path12"
       inkscape:connector-curvature="0" />
  </g>
</svg>
